<svg xmlns="http://www.w3.org/2000/svg" xmlns:xlink="http://www.w3.org/1999/xlink" viewBox="0 0 96.97 96.97"><defs><style>.cls-1{fill:url(#Безымянный_градиент_22);}.cls-2{fill:#fff;}</style><linearGradient id="Безымянный_градиент_22" x1="72.73" y1="90.48" x2="24.24" y2="6.49" gradientUnits="userSpaceOnUse"><stop offset="0" stop-color="#e2a442"/><stop offset="1" stop-color="#e7b141"/></linearGradient></defs><title>favicon</title><g id="Слой_2" data-name="Слой 2"><g id="Слой_1-2" data-name="Слой 1"><circle class="cls-1" cx="48.49" cy="48.49" r="48.49"/><path class="cls-2" d="M14.24,46.49c0,.23.17.41.52.54a5.15,5.15,0,0,0,1.33.3,10.71,10.71,0,0,1,3.41,1.1,3.39,3.39,0,0,1,1.33,1.35A4.47,4.47,0,0,1,21.35,52a4.54,4.54,0,0,1-.61,2.39A4,4,0,0,1,19.13,56a8.74,8.74,0,0,1-2,.75,9.57,9.57,0,0,1-2.15.24q-5.16,0-6.67-3.39l4.59-2a2,2,0,0,0,2,1.45c.65,0,1-.21,1-.63,0-.25-.24-.45-.71-.6s-1.05-.31-1.71-.47a14.23,14.23,0,0,1-2-.65,4.07,4.07,0,0,1-1.72-1.38A3.94,3.94,0,0,1,9,46.81a4.2,4.2,0,0,1,1.78-3.62,6.85,6.85,0,0,1,4.11-1.28q4.66,0,6.18,3.62l-4.36,1.56a1.67,1.67,0,0,0-1.59-1.19C14.53,45.9,14.24,46.1,14.24,46.49Z"/><path class="cls-2" d="M40,41.91a5,5,0,0,1,3.87,1.55,6.41,6.41,0,0,1,1.4,4.43v8.65H40V48.6c0-1.08-.48-1.62-1.45-1.62s-1.68.7-1.68,2.11v7.45H31.6V48.6c0-1.08-.48-1.62-1.45-1.62s-1.68.7-1.68,2.11v7.45H23.2V42.31h5.27v1.34a4.68,4.68,0,0,1,3.87-1.74,3.89,3.89,0,0,1,3.56,1.76A5.19,5.19,0,0,1,40,41.91Z"/><path class="cls-2" d="M59.51,56.54,58.82,54H53.07l-.68,2.56H46.27l6.35-19.93h6.66l6.35,19.93ZM54.3,49.43h3.3L56,43.3Z"/><path class="cls-2" d="M72,45.07a3.87,3.87,0,0,1,1.57-2.25,4.69,4.69,0,0,1,2.7-.8v5.7a4.1,4.1,0,0,0-3,.67A3.24,3.24,0,0,0,72,51.25v5.29H66.77V42.31H72Z"/><path class="cls-2" d="M87.84,47.32h-3v3.07a1.44,1.44,0,0,0,.34,1.06,1.5,1.5,0,0,0,1,.38,12.94,12.94,0,0,0,1.64,0v4.72c-3,.42-5.11.17-6.37-.76s-1.89-2.63-1.89-5.1V47.32h-2v-5h2V39.89l5.27-1.57v4h3Z"/></g></g></svg>