<?xml version="1.0" standalone="no"?>
<!DOCTYPE svg PUBLIC "-//W3C//DTD SVG 20010904//EN"
 "http://www.w3.org/TR/2001/REC-SVG-20010904/DTD/svg10.dtd">
<svg version="1.0" xmlns="http://www.w3.org/2000/svg"
 width="291.000000pt" height="291.000000pt" viewBox="0 0 291.000000 291.000000"
 preserveAspectRatio="xMidYMid meet">
<metadata>
Created by potrace 1.11, written by Peter Selinger 2001-2013
</metadata>
<g transform="translate(0.000000,291.000000) scale(0.100000,-0.100000)"
fill="#000000" stroke="none">
<path d="M1295 2899 c-601 -71 -1095 -502 -1245 -1083 -71 -279 -62 -552 30
-827 46 -138 87 -222 168 -344 201 -304 492 -510 862 -608 112 -30 121 -31
345 -31 220 -1 235 0 340 27 560 142 972 567 1092 1127 14 67 18 130 18 300 0
200 -2 222 -27 322 -79 312 -217 542 -458 762 -74 68 -213 162 -314 213 -93
47 -281 108 -391 128 -114 20 -316 27 -420 14z m582 -1384 c51 -159 93 -293
93 -297 0 -5 -40 -8 -90 -8 l-89 0 -12 40 -12 41 -86 -3 -85 -3 -9 -37 -9 -38
-93 0 -93 0 94 293 c51 160 94 296 94 300 0 4 46 6 102 5 l102 -3 93 -290z
m673 180 l0 -55 45 0 45 0 0 -75 0 -75 -45 0 -45 0 0 -58 c0 -67 11 -82 57
-82 l33 0 0 -69 0 -69 -39 -7 c-47 -8 -106 2 -143 23 -42 24 -61 75 -66 175
l-4 87 -29 0 -29 0 0 75 0 75 30 0 c28 0 30 3 30 35 0 33 2 35 63 54 97 30 97
30 97 -34z m-2025 -56 c42 -12 109 -71 103 -90 -2 -7 -28 -21 -57 -32 -51 -20
-54 -20 -82 -3 -30 18 -59 16 -59 -3 0 -6 19 -15 43 -21 135 -34 167 -62 167
-146 0 -45 -5 -59 -30 -87 -71 -82 -272 -76 -339 9 l-22 29 68 31 c64 29 69
30 83 14 19 -21 45 -31 65 -24 36 14 10 33 -73 54 -59 15 -109 61 -117 109
-20 117 108 199 250 160z m498 2 c13 -5 31 -17 40 -26 16 -15 19 -15 48 6 75
53 193 26 229 -53 17 -37 20 -66 20 -200 l0 -158 -80 0 -80 0 0 135 c0 122 -2
135 -19 145 -24 12 -48 4 -61 -21 -6 -10 -10 -72 -10 -138 l0 -121 -80 0 -80
0 0 135 c0 126 -1 135 -21 145 -16 9 -26 8 -45 -5 -23 -15 -24 -19 -24 -145
l0 -130 -80 0 -80 0 0 215 0 215 80 0 c75 0 80 -1 80 -22 0 -20 1 -20 18 -5
37 34 98 46 145 28z m1137 -38 l0 -38 23 27 c26 30 57 48 86 48 19 0 21 -6 21
-78 l0 -78 -47 -15 c-66 -19 -83 -55 -83 -171 l0 -88 -75 0 -75 0 0 215 0 215
75 0 75 0 0 -37z"/>
<path d="M1661 1522 c-11 -43 -21 -84 -21 -90 0 -8 17 -12 45 -12 25 0 45 3
45 6 0 9 -41 169 -45 172 -1 2 -12 -32 -24 -76z"/>
</g>
</svg>
