<svg xmlns="http://www.w3.org/2000/svg" xmlns:xlink="http://www.w3.org/1999/xlink" viewBox="0 0 146.85 96.47"><defs><style>.cls-1{fill:url(#Безымянный_градиент_22);}.cls-2{fill:url(#Безымянный_градиент_22-2);}.cls-3{fill:url(#Безымянный_градиент_22-3);}.cls-4{fill:url(#Безымянный_градиент_22-4);}.cls-5{fill:url(#Безымянный_градиент_22-5);}</style><linearGradient id="Безымянный_градиент_22" x1="72.35" y1="90.01" x2="24.14" y2="6.51" gradientUnits="userSpaceOnUse"><stop offset="0" stop-color="#f7a537"/><stop offset="1" stop-color="#f9b233"/></linearGradient><linearGradient id="Безымянный_градиент_22-2" x1="97.31" y1="51.92" x2="93" y2="44.45" xlink:href="#Безымянный_градиент_22"/><linearGradient id="Безымянный_градиент_22-3" x1="109.56" y1="65.35" x2="91.03" y2="33.26" xlink:href="#Безымянный_градиент_22"/><linearGradient id="Безымянный_градиент_22-4" x1="126.21" y1="61.46" x2="114.1" y2="40.48" xlink:href="#Безымянный_градиент_22"/><linearGradient id="Безымянный_градиент_22-5" x1="148.02" y1="63.37" x2="133" y2="37.36" xlink:href="#Безымянный_градиент_22"/></defs><title>smart_logo</title><g id="Слой_2" data-name="Слой 2"><g id="Слой_1-2" data-name="Слой 1"><path class="cls-1" d="M90.38,64.05H80.47L90.75,31.78h2.84A48.25,48.25,0,1,0,95,59.9H91.49ZM40.07,60.59a6.47,6.47,0,0,1-2.6,2.49,14.48,14.48,0,0,1-3.3,1.22,15.34,15.34,0,0,1-3.48.39q-8.34,0-10.78-5.48l7.42-3.32a3.25,3.25,0,0,0,3.27,2.35c1,0,1.57-.34,1.57-1,0-.4-.39-.72-1.16-1s-1.69-.5-2.76-.76A23.28,23.28,0,0,1,25,54.43a6.48,6.48,0,0,1-2.79-2.23,6.41,6.41,0,0,1-1.15-3.92,6.78,6.78,0,0,1,2.88-5.85,11.06,11.06,0,0,1,6.66-2.08q7.56,0,10,5.86l-7.05,2.53A2.72,2.72,0,0,0,31,46.81c-.95,0-1.43.32-1.43,1,0,.37.28.67.85.88a8.83,8.83,0,0,0,2.15.48,15.88,15.88,0,0,1,2.76.63,15.51,15.51,0,0,1,2.77,1.15,5.44,5.44,0,0,1,2.14,2.19,7.18,7.18,0,0,1,.85,3.62A7.43,7.43,0,0,1,40.07,60.59ZM79.32,64H70.79V51.18c0-1.75-.78-2.62-2.35-2.62-1.81,0-2.72,1.13-2.72,3.41V64H57.19V51.18c0-1.75-.78-2.62-2.35-2.62-1.81,0-2.72,1.13-2.72,3.41V64H43.6V41h8.52v2.16a7.62,7.62,0,0,1,6.27-2.81,6.28,6.28,0,0,1,5.76,2.86,8.36,8.36,0,0,1,6.64-2.86,8,8,0,0,1,6.27,2.51q2.26,2.52,2.26,7.17Z"/><path class="cls-2" d="M96.27,52.52c.13-1.41.2-2.84.2-4.28a49.25,49.25,0,0,0-.33-5.6l-2.67,9.88Z"/><path class="cls-3" d="M93.59,31.78a48.3,48.3,0,0,1,2.55,10.86v0l2.67,9.91H96.27A47.36,47.36,0,0,1,95,59.9h5.76l1.11,4.15h9.91L101.54,31.78Z"/><path class="cls-4" d="M121.73,45.47V41H113.2v23h8.53V55.47a5.26,5.26,0,0,1,2.07-4.63,6.6,6.6,0,0,1,4.84-1.08V40.54a7.58,7.58,0,0,0-4.38,1.29A6.23,6.23,0,0,0,121.73,45.47Z"/><path class="cls-5" d="M146.85,49.11V41H142V34.54l-8.53,2.54V41h-3.23v8.11h3.23v5.44q0,6,3.07,8.25t10.3,1.25V56.39a21.86,21.86,0,0,1-2.65,0,2.49,2.49,0,0,1-1.64-.63,2.29,2.29,0,0,1-.55-1.7v-5Z"/></g></g></svg>